<svg width="200" height="166" viewBox="0 0 200 166" fill="none" xmlns="http://www.w3.org/2000/svg">
<path d="M159.707 0C161.205 2.57858e-05 162.684 0.337733 164.033 0.987936C165.382 1.63814 166.566 2.58405 167.498 3.75512L168.234 4.82801L198.085 54.4989C199.062 56.1276 199.552 58.002 199.496 59.8999C199.439 61.7979 198.839 63.6399 197.766 65.2079L196.97 66.2311L112.095 160.934C110.519 162.539 108.638 163.814 106.562 164.684C104.486 165.554 102.257 166.001 100.005 166C96.0253 166 92.1945 164.609 88.9607 161.857L87.6174 160.606L3.04038 66.2311C1.76797 64.8137 0.930227 63.0611 0.62682 61.182C0.323412 59.3028 0.567113 57.3762 1.32893 55.6314L1.92594 54.4889L31.906 4.59952L32.5428 3.70545C32.9994 3.14078 33.5166 2.62776 34.0851 2.17558L34.9707 1.5398L35.8463 1.04309L36.3438 0.8146L36.9408 0.566249L38.0254 0.248355L39.1398 0.049672L40.304 0H159.707Z" fill="url(#paint0_linear_3191_4195)"/>
<path fill-rule="evenodd" clip-rule="evenodd" d="M76.9859 38.8397C76.2444 38.8397 75.5102 38.9857 74.8252 39.2694C74.1401 39.5532 73.5177 39.9691 72.9934 40.4934C72.4691 41.0177 72.0532 41.6401 71.7694 42.3252C71.4857 43.0102 71.3397 43.7444 71.3397 44.4859C71.3397 45.2274 71.4857 45.9616 71.7694 46.6466C72.0532 47.3317 72.4691 47.9541 72.9934 48.4784C73.5177 49.0027 74.1401 49.4186 74.8252 49.7024C75.5102 49.9861 76.2444 50.1322 76.9859 50.1322C78.4834 50.1322 79.9195 49.5373 80.9784 48.4784C82.0373 47.4195 82.6322 45.9834 82.6322 44.4859C82.6322 42.9884 82.0373 41.5523 80.9784 40.4934C79.9195 39.4345 78.4834 38.8397 76.9859 38.8397ZM66.5 44.4859C66.5 41.7049 67.6048 39.0377 69.5713 37.0713C71.5377 35.1048 74.2049 34 76.9859 34C79.7669 34 82.4341 35.1048 84.4006 37.0713C86.3671 39.0377 87.4718 41.7049 87.4718 44.4859C87.4718 47.2669 86.3671 49.9341 84.4006 51.9006C82.4341 53.8671 79.7669 54.9718 76.9859 54.9718C74.2049 54.9718 71.5377 53.8671 69.5713 51.9006C67.6048 49.9341 66.5 47.2669 66.5 44.4859ZM76.9859 85.623C75.4884 85.623 74.0523 86.2178 72.9934 87.2767C71.9345 88.3356 71.3397 89.7717 71.3397 91.2692C71.3397 92.7667 71.9345 94.2028 72.9934 95.2617C74.0523 96.3206 75.4884 96.9155 76.9859 96.9155C78.4834 96.9155 79.9195 96.3206 80.9784 95.2617C82.0373 94.2028 82.6322 92.7667 82.6322 91.2692C82.6322 89.7717 82.0373 88.3356 80.9784 87.2767C79.9195 86.2178 78.4834 85.623 76.9859 85.623ZM66.5 91.2692C66.5 88.4882 67.6048 85.821 69.5713 83.8546C71.5377 81.8881 74.2049 80.7833 76.9859 80.7833C79.7669 80.7833 82.4341 81.8881 84.4006 83.8546C86.3671 85.821 87.4718 88.4882 87.4718 91.2692C87.4718 94.0503 86.3671 96.7174 84.4006 98.6839C82.4341 100.65 79.7669 101.755 76.9859 101.755C74.2049 101.755 71.5377 100.65 69.5713 98.6839C67.6048 96.7174 66.5 94.0503 66.5 91.2692ZM123.769 85.623C122.272 85.623 120.836 86.2178 119.777 87.2767C118.718 88.3356 118.123 89.7717 118.123 91.2692C118.123 92.7667 118.718 94.2028 119.777 95.2617C120.836 96.3206 122.272 96.9155 123.769 96.9155C125.267 96.9155 126.703 96.3206 127.762 95.2617C128.821 94.2028 129.415 92.7667 129.415 91.2692C129.415 89.7717 128.821 88.3356 127.762 87.2767C126.703 86.2178 125.267 85.623 123.769 85.623ZM113.283 91.2692C113.283 88.4882 114.388 85.821 116.355 83.8546C118.321 81.8881 120.988 80.7833 123.769 80.7833C126.55 80.7833 129.217 81.8881 131.184 83.8546C133.15 85.821 134.255 88.4882 134.255 91.2692C134.255 94.0503 133.15 96.7174 131.184 98.6839C129.217 100.65 126.55 101.755 123.769 101.755C120.988 101.755 118.321 100.65 116.355 98.6839C114.388 96.7174 113.283 94.0503 113.283 91.2692Z" fill="#063A72"/>
<path fill-rule="evenodd" clip-rule="evenodd" d="M76.9882 52.5521C77.63 52.5521 78.2455 52.807 78.6993 53.2608C79.1531 53.7146 79.408 54.3301 79.408 54.9719V80.7834C79.408 81.4251 79.1531 82.0406 78.6993 82.4944C78.2455 82.9482 77.63 83.2032 76.9882 83.2032C76.3464 83.2032 75.7309 82.9482 75.2771 82.4944C74.8233 82.0406 74.5684 81.4251 74.5684 80.7834V54.9719C74.5684 54.3301 74.8233 53.7146 75.2771 53.2608C75.7309 52.807 76.3464 52.5521 76.9882 52.5521ZM104.913 34.7099C105.366 35.1636 105.621 35.7786 105.621 36.4199C105.621 37.0612 105.366 37.6762 104.913 38.1299L100.977 42.0662H114.092C117.301 42.0662 120.379 43.3409 122.648 45.6099C124.917 47.8789 126.191 50.9564 126.191 54.1653V82.3966C126.191 83.0384 125.936 83.6539 125.483 84.1077C125.029 84.5615 124.413 84.8164 123.771 84.8164C123.13 84.8164 122.514 84.5615 122.06 84.1077C121.607 83.6539 121.352 83.0384 121.352 82.3966V54.1653C121.352 52.24 120.587 50.3935 119.225 49.0321C117.864 47.6706 116.018 46.9058 114.092 46.9058H100.98L104.916 50.8421C105.357 51.2986 105.6 51.91 105.595 52.5445C105.589 53.179 105.334 53.7858 104.885 54.2342C104.436 54.6827 103.829 54.9369 103.195 54.9421C102.56 54.9473 101.949 54.7031 101.493 54.2621L93.4269 46.196C92.9737 45.7423 92.7192 45.1272 92.7192 44.486C92.7192 43.8447 92.9737 43.2297 93.4269 42.776L101.493 34.7099C101.947 34.2567 102.562 34.0022 103.203 34.0022C103.844 34.0022 104.459 34.2567 104.913 34.7099Z" fill="#063A72"/>
<circle cx="123.718" cy="91.214" r="9.01634" fill="#063A72"/>
<defs>
<linearGradient id="paint0_linear_3191_4195" x1="100" y1="0" x2="100" y2="166" gradientUnits="userSpaceOnUse">
<stop stop-color="#FFDA33"/>
<stop offset="1" stop-color="#FCB03F"/>
</linearGradient>
</defs>
</svg>
